<mxfile host="app.diagrams.net" modified="2020-03-31T15:56:00.764Z" agent="Mozilla/5.0 (Windows NT 10.0; Win64; x64) AppleWebKit/537.36 (KHTML, like Gecko) Chrome/80.0.3987.149 Safari/537.36" etag="BfUPXfx_AgSuOc_dlpHH" version="12.8.8" type="github">
  <diagram id="C5RBs43oDa-KdzZeNtuy" name="Page-1">
    <mxGraphModel dx="1422" dy="794" grid="1" gridSize="10" guides="1" tooltips="1" connect="1" arrows="1" fold="1" page="1" pageScale="1" pageWidth="1169" pageHeight="827" math="0" shadow="0">
      <root>
        <mxCell id="WIyWlLk6GJQsqaUBKTNV-0" />
        <mxCell id="WIyWlLk6GJQsqaUBKTNV-1" parent="WIyWlLk6GJQsqaUBKTNV-0" />
        <mxCell id="S_byT54Nm3cGkx0YTA23-117" style="edgeStyle=orthogonalEdgeStyle;rounded=0;orthogonalLoop=1;jettySize=auto;html=1;startArrow=ERmany;startFill=0;endArrow=none;endFill=0;exitX=0.5;exitY=0;exitDx=0;exitDy=0;" parent="WIyWlLk6GJQsqaUBKTNV-1" source="S_byT54Nm3cGkx0YTA23-31" target="S_byT54Nm3cGkx0YTA23-18" edge="1">
          <mxGeometry relative="1" as="geometry" />
        </mxCell>
        <mxCell id="S_byT54Nm3cGkx0YTA23-18" value="USER" style="swimlane;fontStyle=0;childLayout=stackLayout;horizontal=1;startSize=26;fillColor=#e0e0e0;horizontalStack=0;resizeParent=1;resizeParentMax=0;resizeLast=0;collapsible=1;marginBottom=0;swimlaneFillColor=#ffffff;align=center;fontSize=14;" parent="WIyWlLk6GJQsqaUBKTNV-1" vertex="1">
          <mxGeometry x="475" y="120" width="220" height="118" as="geometry" />
        </mxCell>
        <mxCell id="S_byT54Nm3cGkx0YTA23-19" value="username : VARCHAR(128)" style="shape=partialRectangle;top=0;left=0;right=0;bottom=1;align=left;verticalAlign=middle;fillColor=none;spacingLeft=34;spacingRight=4;overflow=hidden;rotatable=0;points=[[0,0.5],[1,0.5]];portConstraint=eastwest;dropTarget=0;fontStyle=5;fontSize=12;" parent="S_byT54Nm3cGkx0YTA23-18" vertex="1">
          <mxGeometry y="26" width="220" height="30" as="geometry" />
        </mxCell>
        <mxCell id="S_byT54Nm3cGkx0YTA23-20" value="PK" style="shape=partialRectangle;top=0;left=0;bottom=0;fillColor=none;align=left;verticalAlign=middle;spacingLeft=4;spacingRight=4;overflow=hidden;rotatable=0;points=[];portConstraint=eastwest;part=1;fontSize=12;" parent="S_byT54Nm3cGkx0YTA23-19" vertex="1" connectable="0">
          <mxGeometry width="30" height="30" as="geometry" />
        </mxCell>
        <mxCell id="S_byT54Nm3cGkx0YTA23-21" value="nip : INT(64)" style="shape=partialRectangle;top=0;left=0;right=0;bottom=0;align=left;verticalAlign=top;fillColor=none;spacingLeft=34;spacingRight=4;overflow=hidden;rotatable=0;points=[[0,0.5],[1,0.5]];portConstraint=eastwest;dropTarget=0;fontSize=12;" parent="S_byT54Nm3cGkx0YTA23-18" vertex="1">
          <mxGeometry y="56" width="220" height="26" as="geometry" />
        </mxCell>
        <mxCell id="S_byT54Nm3cGkx0YTA23-22" value="FK1" style="shape=partialRectangle;top=0;left=0;bottom=0;fillColor=none;align=left;verticalAlign=top;spacingLeft=4;spacingRight=4;overflow=hidden;rotatable=0;points=[];portConstraint=eastwest;part=1;fontSize=12;" parent="S_byT54Nm3cGkx0YTA23-21" vertex="1" connectable="0">
          <mxGeometry width="30" height="26" as="geometry" />
        </mxCell>
        <mxCell id="S_byT54Nm3cGkx0YTA23-23" value="password : VARCHAR(128)" style="shape=partialRectangle;top=0;left=0;right=0;bottom=0;align=left;verticalAlign=top;fillColor=none;spacingLeft=34;spacingRight=4;overflow=hidden;rotatable=0;points=[[0,0.5],[1,0.5]];portConstraint=eastwest;dropTarget=0;fontSize=12;" parent="S_byT54Nm3cGkx0YTA23-18" vertex="1">
          <mxGeometry y="82" width="220" height="26" as="geometry" />
        </mxCell>
        <mxCell id="S_byT54Nm3cGkx0YTA23-24" value="" style="shape=partialRectangle;top=0;left=0;bottom=0;fillColor=none;align=left;verticalAlign=top;spacingLeft=4;spacingRight=4;overflow=hidden;rotatable=0;points=[];portConstraint=eastwest;part=1;fontSize=12;" parent="S_byT54Nm3cGkx0YTA23-23" vertex="1" connectable="0">
          <mxGeometry width="30" height="26" as="geometry" />
        </mxCell>
        <mxCell id="S_byT54Nm3cGkx0YTA23-29" value="" style="shape=partialRectangle;top=0;left=0;right=0;bottom=0;align=left;verticalAlign=top;fillColor=none;spacingLeft=34;spacingRight=4;overflow=hidden;rotatable=0;points=[[0,0.5],[1,0.5]];portConstraint=eastwest;dropTarget=0;fontSize=12;" parent="S_byT54Nm3cGkx0YTA23-18" vertex="1">
          <mxGeometry y="108" width="220" height="10" as="geometry" />
        </mxCell>
        <mxCell id="S_byT54Nm3cGkx0YTA23-30" value="" style="shape=partialRectangle;top=0;left=0;bottom=0;fillColor=none;align=left;verticalAlign=top;spacingLeft=4;spacingRight=4;overflow=hidden;rotatable=0;points=[];portConstraint=eastwest;part=1;fontSize=12;" parent="S_byT54Nm3cGkx0YTA23-29" vertex="1" connectable="0">
          <mxGeometry width="30" height="10" as="geometry" />
        </mxCell>
        <mxCell id="S_byT54Nm3cGkx0YTA23-118" style="edgeStyle=orthogonalEdgeStyle;rounded=0;orthogonalLoop=1;jettySize=auto;html=1;entryX=0.5;entryY=0;entryDx=0;entryDy=0;startArrow=ERmany;startFill=0;endArrow=none;endFill=0;" parent="WIyWlLk6GJQsqaUBKTNV-1" source="S_byT54Nm3cGkx0YTA23-31" target="S_byT54Nm3cGkx0YTA23-53" edge="1">
          <mxGeometry relative="1" as="geometry" />
        </mxCell>
        <mxCell id="S_byT54Nm3cGkx0YTA23-31" value="Surat" style="swimlane;fontStyle=0;childLayout=stackLayout;horizontal=1;startSize=26;fillColor=#e0e0e0;horizontalStack=0;resizeParent=1;resizeParentMax=0;resizeLast=0;collapsible=1;marginBottom=0;swimlaneFillColor=#ffffff;align=center;fontSize=14;" parent="WIyWlLk6GJQsqaUBKTNV-1" vertex="1">
          <mxGeometry x="455" y="300" width="260" height="118" as="geometry" />
        </mxCell>
        <mxCell id="S_byT54Nm3cGkx0YTA23-32" value="no_berkas : VARCHAR(128)" style="shape=partialRectangle;top=0;left=0;right=0;bottom=1;align=left;verticalAlign=middle;fillColor=none;spacingLeft=34;spacingRight=4;overflow=hidden;rotatable=0;points=[[0,0.5],[1,0.5]];portConstraint=eastwest;dropTarget=0;fontStyle=5;fontSize=12;" parent="S_byT54Nm3cGkx0YTA23-31" vertex="1">
          <mxGeometry y="26" width="260" height="30" as="geometry" />
        </mxCell>
        <mxCell id="S_byT54Nm3cGkx0YTA23-33" value="PK" style="shape=partialRectangle;top=0;left=0;bottom=0;fillColor=none;align=left;verticalAlign=middle;spacingLeft=4;spacingRight=4;overflow=hidden;rotatable=0;points=[];portConstraint=eastwest;part=1;fontSize=12;" parent="S_byT54Nm3cGkx0YTA23-32" vertex="1" connectable="0">
          <mxGeometry width="30" height="30" as="geometry" />
        </mxCell>
        <mxCell id="S_byT54Nm3cGkx0YTA23-34" value="jenis_surat : enum(&quot;Masuk&quot;, &quot;Keluar&quot;)" style="shape=partialRectangle;top=0;left=0;right=0;bottom=0;align=left;verticalAlign=top;fillColor=none;spacingLeft=34;spacingRight=4;overflow=hidden;rotatable=0;points=[[0,0.5],[1,0.5]];portConstraint=eastwest;dropTarget=0;fontSize=12;" parent="S_byT54Nm3cGkx0YTA23-31" vertex="1">
          <mxGeometry y="56" width="260" height="26" as="geometry" />
        </mxCell>
        <mxCell id="S_byT54Nm3cGkx0YTA23-35" value="" style="shape=partialRectangle;top=0;left=0;bottom=0;fillColor=none;align=left;verticalAlign=top;spacingLeft=4;spacingRight=4;overflow=hidden;rotatable=0;points=[];portConstraint=eastwest;part=1;fontSize=12;" parent="S_byT54Nm3cGkx0YTA23-34" vertex="1" connectable="0">
          <mxGeometry width="30" height="26" as="geometry" />
        </mxCell>
        <mxCell id="S_byT54Nm3cGkx0YTA23-36" value="tanggal : datetime(64)" style="shape=partialRectangle;top=0;left=0;right=0;bottom=0;align=left;verticalAlign=top;fillColor=none;spacingLeft=34;spacingRight=4;overflow=hidden;rotatable=0;points=[[0,0.5],[1,0.5]];portConstraint=eastwest;dropTarget=0;fontSize=12;" parent="S_byT54Nm3cGkx0YTA23-31" vertex="1">
          <mxGeometry y="82" width="260" height="26" as="geometry" />
        </mxCell>
        <mxCell id="S_byT54Nm3cGkx0YTA23-37" value="" style="shape=partialRectangle;top=0;left=0;bottom=0;fillColor=none;align=left;verticalAlign=top;spacingLeft=4;spacingRight=4;overflow=hidden;rotatable=0;points=[];portConstraint=eastwest;part=1;fontSize=12;" parent="S_byT54Nm3cGkx0YTA23-36" vertex="1" connectable="0">
          <mxGeometry width="30" height="26" as="geometry" />
        </mxCell>
        <mxCell id="S_byT54Nm3cGkx0YTA23-42" value="" style="shape=partialRectangle;top=0;left=0;right=0;bottom=0;align=left;verticalAlign=top;fillColor=none;spacingLeft=34;spacingRight=4;overflow=hidden;rotatable=0;points=[[0,0.5],[1,0.5]];portConstraint=eastwest;dropTarget=0;fontSize=12;" parent="S_byT54Nm3cGkx0YTA23-31" vertex="1">
          <mxGeometry y="108" width="260" height="10" as="geometry" />
        </mxCell>
        <mxCell id="S_byT54Nm3cGkx0YTA23-43" value="" style="shape=partialRectangle;top=0;left=0;bottom=0;fillColor=none;align=left;verticalAlign=top;spacingLeft=4;spacingRight=4;overflow=hidden;rotatable=0;points=[];portConstraint=eastwest;part=1;fontSize=12;" parent="S_byT54Nm3cGkx0YTA23-42" vertex="1" connectable="0">
          <mxGeometry width="30" height="10" as="geometry" />
        </mxCell>
        <mxCell id="S_byT54Nm3cGkx0YTA23-119" style="edgeStyle=orthogonalEdgeStyle;rounded=0;orthogonalLoop=1;jettySize=auto;html=1;entryX=1.004;entryY=0.077;entryDx=0;entryDy=0;startArrow=ERmany;startFill=0;endArrow=none;endFill=0;entryPerimeter=0;" parent="WIyWlLk6GJQsqaUBKTNV-1" source="S_byT54Nm3cGkx0YTA23-78" target="S_byT54Nm3cGkx0YTA23-34" edge="1">
          <mxGeometry relative="1" as="geometry" />
        </mxCell>
        <mxCell id="S_byT54Nm3cGkx0YTA23-110" value="" style="edgeStyle=entityRelationEdgeStyle;fontSize=12;html=1;endArrow=ERmandOne;startArrow=ERmandOne;entryX=0;entryY=0.088;entryDx=0;entryDy=0;exitX=1.012;exitY=0.127;exitDx=0;exitDy=0;entryPerimeter=0;exitPerimeter=0;" parent="WIyWlLk6GJQsqaUBKTNV-1" source="S_byT54Nm3cGkx0YTA23-18" target="S_byT54Nm3cGkx0YTA23-0" edge="1">
          <mxGeometry width="100" height="100" relative="1" as="geometry">
            <mxPoint x="770" y="290" as="sourcePoint" />
            <mxPoint x="870" y="190" as="targetPoint" />
          </mxGeometry>
        </mxCell>
        <mxCell id="S_byT54Nm3cGkx0YTA23-53" value="Surat Keluar" style="swimlane;fontStyle=0;childLayout=stackLayout;horizontal=1;startSize=26;fillColor=#e0e0e0;horizontalStack=0;resizeParent=1;resizeParentMax=0;resizeLast=0;collapsible=1;marginBottom=0;swimlaneFillColor=#ffffff;align=center;fontSize=14;" parent="WIyWlLk6GJQsqaUBKTNV-1" vertex="1">
          <mxGeometry x="170" y="440" width="260" height="290" as="geometry" />
        </mxCell>
        <mxCell id="S_byT54Nm3cGkx0YTA23-54" value="no_surat_keluar : VARCHAR(128)" style="shape=partialRectangle;top=0;left=0;right=0;bottom=1;align=left;verticalAlign=middle;fillColor=none;spacingLeft=34;spacingRight=4;overflow=hidden;rotatable=0;points=[[0,0.5],[1,0.5]];portConstraint=eastwest;dropTarget=0;fontStyle=5;fontSize=12;" parent="S_byT54Nm3cGkx0YTA23-53" vertex="1">
          <mxGeometry y="26" width="260" height="30" as="geometry" />
        </mxCell>
        <mxCell id="S_byT54Nm3cGkx0YTA23-55" value="PK" style="shape=partialRectangle;top=0;left=0;bottom=0;fillColor=none;align=left;verticalAlign=middle;spacingLeft=4;spacingRight=4;overflow=hidden;rotatable=0;points=[];portConstraint=eastwest;part=1;fontSize=12;" parent="S_byT54Nm3cGkx0YTA23-54" vertex="1" connectable="0">
          <mxGeometry width="30" height="30" as="geometry" />
        </mxCell>
        <mxCell id="S_byT54Nm3cGkx0YTA23-104" value="no_berkas : VARCHAR(128)" style="shape=partialRectangle;top=0;left=0;right=0;bottom=0;align=left;verticalAlign=top;fillColor=none;spacingLeft=34;spacingRight=4;overflow=hidden;rotatable=0;points=[[0,0.5],[1,0.5]];portConstraint=eastwest;dropTarget=0;fontSize=12;" parent="S_byT54Nm3cGkx0YTA23-53" vertex="1">
          <mxGeometry y="56" width="260" height="26" as="geometry" />
        </mxCell>
        <mxCell id="S_byT54Nm3cGkx0YTA23-105" value="FK1" style="shape=partialRectangle;top=0;left=0;bottom=0;fillColor=none;align=left;verticalAlign=top;spacingLeft=4;spacingRight=4;overflow=hidden;rotatable=0;points=[];portConstraint=eastwest;part=1;fontSize=12;" parent="S_byT54Nm3cGkx0YTA23-104" vertex="1" connectable="0">
          <mxGeometry width="30" height="26" as="geometry" />
        </mxCell>
        <mxCell id="S_byT54Nm3cGkx0YTA23-56" value="nama_instansi : VARCHAR(128)" style="shape=partialRectangle;top=0;left=0;right=0;bottom=0;align=left;verticalAlign=top;fillColor=none;spacingLeft=34;spacingRight=4;overflow=hidden;rotatable=0;points=[[0,0.5],[1,0.5]];portConstraint=eastwest;dropTarget=0;fontSize=12;" parent="S_byT54Nm3cGkx0YTA23-53" vertex="1">
          <mxGeometry y="82" width="260" height="26" as="geometry" />
        </mxCell>
        <mxCell id="S_byT54Nm3cGkx0YTA23-57" value="" style="shape=partialRectangle;top=0;left=0;bottom=0;fillColor=none;align=left;verticalAlign=top;spacingLeft=4;spacingRight=4;overflow=hidden;rotatable=0;points=[];portConstraint=eastwest;part=1;fontSize=12;" parent="S_byT54Nm3cGkx0YTA23-56" vertex="1" connectable="0">
          <mxGeometry width="30" height="26" as="geometry" />
        </mxCell>
        <mxCell id="S_byT54Nm3cGkx0YTA23-64" value="alamat_tujuan : VARCHAR(128)" style="shape=partialRectangle;top=0;left=0;right=0;bottom=0;align=left;verticalAlign=top;fillColor=none;spacingLeft=34;spacingRight=4;overflow=hidden;rotatable=0;points=[[0,0.5],[1,0.5]];portConstraint=eastwest;dropTarget=0;fontSize=12;" parent="S_byT54Nm3cGkx0YTA23-53" vertex="1">
          <mxGeometry y="108" width="260" height="26" as="geometry" />
        </mxCell>
        <mxCell id="S_byT54Nm3cGkx0YTA23-65" value="" style="shape=partialRectangle;top=0;left=0;bottom=0;fillColor=none;align=left;verticalAlign=top;spacingLeft=4;spacingRight=4;overflow=hidden;rotatable=0;points=[];portConstraint=eastwest;part=1;fontSize=12;" parent="S_byT54Nm3cGkx0YTA23-64" vertex="1" connectable="0">
          <mxGeometry width="30" height="26" as="geometry" />
        </mxCell>
        <mxCell id="S_byT54Nm3cGkx0YTA23-58" value="tanggal_kirim : DATETIME(128)" style="shape=partialRectangle;top=0;left=0;right=0;bottom=0;align=left;verticalAlign=top;fillColor=none;spacingLeft=34;spacingRight=4;overflow=hidden;rotatable=0;points=[[0,0.5],[1,0.5]];portConstraint=eastwest;dropTarget=0;fontSize=12;" parent="S_byT54Nm3cGkx0YTA23-53" vertex="1">
          <mxGeometry y="134" width="260" height="26" as="geometry" />
        </mxCell>
        <mxCell id="S_byT54Nm3cGkx0YTA23-59" value="" style="shape=partialRectangle;top=0;left=0;bottom=0;fillColor=none;align=left;verticalAlign=top;spacingLeft=4;spacingRight=4;overflow=hidden;rotatable=0;points=[];portConstraint=eastwest;part=1;fontSize=12;" parent="S_byT54Nm3cGkx0YTA23-58" vertex="1" connectable="0">
          <mxGeometry width="30" height="26" as="geometry" />
        </mxCell>
        <mxCell id="S_byT54Nm3cGkx0YTA23-68" value="perihal : VARCHAR(128)" style="shape=partialRectangle;top=0;left=0;right=0;bottom=0;align=left;verticalAlign=top;fillColor=none;spacingLeft=34;spacingRight=4;overflow=hidden;rotatable=0;points=[[0,0.5],[1,0.5]];portConstraint=eastwest;dropTarget=0;fontSize=12;" parent="S_byT54Nm3cGkx0YTA23-53" vertex="1">
          <mxGeometry y="160" width="260" height="26" as="geometry" />
        </mxCell>
        <mxCell id="S_byT54Nm3cGkx0YTA23-69" value="" style="shape=partialRectangle;top=0;left=0;bottom=0;fillColor=none;align=left;verticalAlign=top;spacingLeft=4;spacingRight=4;overflow=hidden;rotatable=0;points=[];portConstraint=eastwest;part=1;fontSize=12;" parent="S_byT54Nm3cGkx0YTA23-68" vertex="1" connectable="0">
          <mxGeometry width="30" height="26" as="geometry" />
        </mxCell>
        <mxCell id="S_byT54Nm3cGkx0YTA23-70" value="kategori : VARCHAR(128)" style="shape=partialRectangle;top=0;left=0;right=0;bottom=0;align=left;verticalAlign=top;fillColor=none;spacingLeft=34;spacingRight=4;overflow=hidden;rotatable=0;points=[[0,0.5],[1,0.5]];portConstraint=eastwest;dropTarget=0;fontSize=12;" parent="S_byT54Nm3cGkx0YTA23-53" vertex="1">
          <mxGeometry y="186" width="260" height="26" as="geometry" />
        </mxCell>
        <mxCell id="S_byT54Nm3cGkx0YTA23-71" value="" style="shape=partialRectangle;top=0;left=0;bottom=0;fillColor=none;align=left;verticalAlign=top;spacingLeft=4;spacingRight=4;overflow=hidden;rotatable=0;points=[];portConstraint=eastwest;part=1;fontSize=12;" parent="S_byT54Nm3cGkx0YTA23-70" vertex="1" connectable="0">
          <mxGeometry width="30" height="26" as="geometry" />
        </mxCell>
        <mxCell id="S_byT54Nm3cGkx0YTA23-66" value="nomor_petunjuk : VARCHAR(128)" style="shape=partialRectangle;top=0;left=0;right=0;bottom=0;align=left;verticalAlign=top;fillColor=none;spacingLeft=34;spacingRight=4;overflow=hidden;rotatable=0;points=[[0,0.5],[1,0.5]];portConstraint=eastwest;dropTarget=0;fontSize=12;" parent="S_byT54Nm3cGkx0YTA23-53" vertex="1">
          <mxGeometry y="212" width="260" height="26" as="geometry" />
        </mxCell>
        <mxCell id="S_byT54Nm3cGkx0YTA23-67" value="" style="shape=partialRectangle;top=0;left=0;bottom=0;fillColor=none;align=left;verticalAlign=top;spacingLeft=4;spacingRight=4;overflow=hidden;rotatable=0;points=[];portConstraint=eastwest;part=1;fontSize=12;" parent="S_byT54Nm3cGkx0YTA23-66" vertex="1" connectable="0">
          <mxGeometry width="30" height="26" as="geometry" />
        </mxCell>
        <mxCell id="S_byT54Nm3cGkx0YTA23-72" value="nomor_paket : VARCHAR(128)" style="shape=partialRectangle;top=0;left=0;right=0;bottom=0;align=left;verticalAlign=top;fillColor=none;spacingLeft=34;spacingRight=4;overflow=hidden;rotatable=0;points=[[0,0.5],[1,0.5]];portConstraint=eastwest;dropTarget=0;fontSize=12;" parent="S_byT54Nm3cGkx0YTA23-53" vertex="1">
          <mxGeometry y="238" width="260" height="26" as="geometry" />
        </mxCell>
        <mxCell id="S_byT54Nm3cGkx0YTA23-73" value="" style="shape=partialRectangle;top=0;left=0;bottom=0;fillColor=none;align=left;verticalAlign=top;spacingLeft=4;spacingRight=4;overflow=hidden;rotatable=0;points=[];portConstraint=eastwest;part=1;fontSize=12;" parent="S_byT54Nm3cGkx0YTA23-72" vertex="1" connectable="0">
          <mxGeometry width="30" height="26" as="geometry" />
        </mxCell>
        <mxCell id="S_byT54Nm3cGkx0YTA23-76" value="file : MEDIUM BLOB(16000000)" style="shape=partialRectangle;top=0;left=0;right=0;bottom=0;align=left;verticalAlign=top;fillColor=none;spacingLeft=34;spacingRight=4;overflow=hidden;rotatable=0;points=[[0,0.5],[1,0.5]];portConstraint=eastwest;dropTarget=0;fontSize=12;" parent="S_byT54Nm3cGkx0YTA23-53" vertex="1">
          <mxGeometry y="264" width="260" height="26" as="geometry" />
        </mxCell>
        <mxCell id="S_byT54Nm3cGkx0YTA23-77" value="" style="shape=partialRectangle;top=0;left=0;bottom=0;fillColor=none;align=left;verticalAlign=top;spacingLeft=4;spacingRight=4;overflow=hidden;rotatable=0;points=[];portConstraint=eastwest;part=1;fontSize=12;" parent="S_byT54Nm3cGkx0YTA23-76" vertex="1" connectable="0">
          <mxGeometry width="30" height="26" as="geometry" />
        </mxCell>
        <mxCell id="S_byT54Nm3cGkx0YTA23-78" value="Surat Masuk" style="swimlane;fontStyle=0;childLayout=stackLayout;horizontal=1;startSize=26;fillColor=#e0e0e0;horizontalStack=0;resizeParent=1;resizeParentMax=0;resizeLast=0;collapsible=1;marginBottom=0;swimlaneFillColor=#ffffff;align=center;fontSize=14;" parent="WIyWlLk6GJQsqaUBKTNV-1" vertex="1">
          <mxGeometry x="730" y="440" width="260" height="294" as="geometry" />
        </mxCell>
        <mxCell id="S_byT54Nm3cGkx0YTA23-79" value="no_surat_masuk : VARCHAR(128)" style="shape=partialRectangle;top=0;left=0;right=0;bottom=1;align=left;verticalAlign=middle;fillColor=none;spacingLeft=34;spacingRight=4;overflow=hidden;rotatable=0;points=[[0,0.5],[1,0.5]];portConstraint=eastwest;dropTarget=0;fontStyle=5;fontSize=12;" parent="S_byT54Nm3cGkx0YTA23-78" vertex="1">
          <mxGeometry y="26" width="260" height="30" as="geometry" />
        </mxCell>
        <mxCell id="S_byT54Nm3cGkx0YTA23-80" value="PK" style="shape=partialRectangle;top=0;left=0;bottom=0;fillColor=none;align=left;verticalAlign=middle;spacingLeft=4;spacingRight=4;overflow=hidden;rotatable=0;points=[];portConstraint=eastwest;part=1;fontSize=12;" parent="S_byT54Nm3cGkx0YTA23-79" vertex="1" connectable="0">
          <mxGeometry width="30" height="30" as="geometry" />
        </mxCell>
        <mxCell id="S_byT54Nm3cGkx0YTA23-108" value="no_berkas : VARCHAR(128)" style="shape=partialRectangle;top=0;left=0;right=0;bottom=0;align=left;verticalAlign=top;fillColor=none;spacingLeft=34;spacingRight=4;overflow=hidden;rotatable=0;points=[[0,0.5],[1,0.5]];portConstraint=eastwest;dropTarget=0;fontSize=12;" parent="S_byT54Nm3cGkx0YTA23-78" vertex="1">
          <mxGeometry y="56" width="260" height="26" as="geometry" />
        </mxCell>
        <mxCell id="S_byT54Nm3cGkx0YTA23-109" value="FK1" style="shape=partialRectangle;top=0;left=0;bottom=0;fillColor=none;align=left;verticalAlign=top;spacingLeft=4;spacingRight=4;overflow=hidden;rotatable=0;points=[];portConstraint=eastwest;part=1;fontSize=12;" parent="S_byT54Nm3cGkx0YTA23-108" vertex="1" connectable="0">
          <mxGeometry width="30" height="26" as="geometry" />
        </mxCell>
        <mxCell id="S_byT54Nm3cGkx0YTA23-81" value="nama_instansi : VARCHAR(128)" style="shape=partialRectangle;top=0;left=0;right=0;bottom=0;align=left;verticalAlign=top;fillColor=none;spacingLeft=34;spacingRight=4;overflow=hidden;rotatable=0;points=[[0,0.5],[1,0.5]];portConstraint=eastwest;dropTarget=0;fontSize=12;" parent="S_byT54Nm3cGkx0YTA23-78" vertex="1">
          <mxGeometry y="82" width="260" height="26" as="geometry" />
        </mxCell>
        <mxCell id="S_byT54Nm3cGkx0YTA23-82" value="" style="shape=partialRectangle;top=0;left=0;bottom=0;fillColor=none;align=left;verticalAlign=top;spacingLeft=4;spacingRight=4;overflow=hidden;rotatable=0;points=[];portConstraint=eastwest;part=1;fontSize=12;" parent="S_byT54Nm3cGkx0YTA23-81" vertex="1" connectable="0">
          <mxGeometry width="30" height="26" as="geometry" />
        </mxCell>
        <mxCell id="S_byT54Nm3cGkx0YTA23-83" value="alamat_pengirim : VARCHAR(128)" style="shape=partialRectangle;top=0;left=0;right=0;bottom=0;align=left;verticalAlign=top;fillColor=none;spacingLeft=34;spacingRight=4;overflow=hidden;rotatable=0;points=[[0,0.5],[1,0.5]];portConstraint=eastwest;dropTarget=0;fontSize=12;" parent="S_byT54Nm3cGkx0YTA23-78" vertex="1">
          <mxGeometry y="108" width="260" height="26" as="geometry" />
        </mxCell>
        <mxCell id="S_byT54Nm3cGkx0YTA23-84" value="" style="shape=partialRectangle;top=0;left=0;bottom=0;fillColor=none;align=left;verticalAlign=top;spacingLeft=4;spacingRight=4;overflow=hidden;rotatable=0;points=[];portConstraint=eastwest;part=1;fontSize=12;" parent="S_byT54Nm3cGkx0YTA23-83" vertex="1" connectable="0">
          <mxGeometry width="30" height="26" as="geometry" />
        </mxCell>
        <mxCell id="S_byT54Nm3cGkx0YTA23-85" value="tanggal_terima: DATETIME(128)" style="shape=partialRectangle;top=0;left=0;right=0;bottom=0;align=left;verticalAlign=top;fillColor=none;spacingLeft=34;spacingRight=4;overflow=hidden;rotatable=0;points=[[0,0.5],[1,0.5]];portConstraint=eastwest;dropTarget=0;fontSize=12;" parent="S_byT54Nm3cGkx0YTA23-78" vertex="1">
          <mxGeometry y="134" width="260" height="26" as="geometry" />
        </mxCell>
        <mxCell id="S_byT54Nm3cGkx0YTA23-86" value="" style="shape=partialRectangle;top=0;left=0;bottom=0;fillColor=none;align=left;verticalAlign=top;spacingLeft=4;spacingRight=4;overflow=hidden;rotatable=0;points=[];portConstraint=eastwest;part=1;fontSize=12;" parent="S_byT54Nm3cGkx0YTA23-85" vertex="1" connectable="0">
          <mxGeometry width="30" height="26" as="geometry" />
        </mxCell>
        <mxCell id="S_byT54Nm3cGkx0YTA23-87" value="perihal : VARCHAR(128)" style="shape=partialRectangle;top=0;left=0;right=0;bottom=0;align=left;verticalAlign=top;fillColor=none;spacingLeft=34;spacingRight=4;overflow=hidden;rotatable=0;points=[[0,0.5],[1,0.5]];portConstraint=eastwest;dropTarget=0;fontSize=12;" parent="S_byT54Nm3cGkx0YTA23-78" vertex="1">
          <mxGeometry y="160" width="260" height="26" as="geometry" />
        </mxCell>
        <mxCell id="S_byT54Nm3cGkx0YTA23-88" value="" style="shape=partialRectangle;top=0;left=0;bottom=0;fillColor=none;align=left;verticalAlign=top;spacingLeft=4;spacingRight=4;overflow=hidden;rotatable=0;points=[];portConstraint=eastwest;part=1;fontSize=12;" parent="S_byT54Nm3cGkx0YTA23-87" vertex="1" connectable="0">
          <mxGeometry width="30" height="26" as="geometry" />
        </mxCell>
        <mxCell id="S_byT54Nm3cGkx0YTA23-89" value="kategori : VARCHAR(128)" style="shape=partialRectangle;top=0;left=0;right=0;bottom=0;align=left;verticalAlign=top;fillColor=none;spacingLeft=34;spacingRight=4;overflow=hidden;rotatable=0;points=[[0,0.5],[1,0.5]];portConstraint=eastwest;dropTarget=0;fontSize=12;" parent="S_byT54Nm3cGkx0YTA23-78" vertex="1">
          <mxGeometry y="186" width="260" height="26" as="geometry" />
        </mxCell>
        <mxCell id="S_byT54Nm3cGkx0YTA23-90" value="" style="shape=partialRectangle;top=0;left=0;bottom=0;fillColor=none;align=left;verticalAlign=top;spacingLeft=4;spacingRight=4;overflow=hidden;rotatable=0;points=[];portConstraint=eastwest;part=1;fontSize=12;" parent="S_byT54Nm3cGkx0YTA23-89" vertex="1" connectable="0">
          <mxGeometry width="30" height="26" as="geometry" />
        </mxCell>
        <mxCell id="S_byT54Nm3cGkx0YTA23-91" value="nomor_petunjuk : VARCHAR(128)" style="shape=partialRectangle;top=0;left=0;right=0;bottom=0;align=left;verticalAlign=top;fillColor=none;spacingLeft=34;spacingRight=4;overflow=hidden;rotatable=0;points=[[0,0.5],[1,0.5]];portConstraint=eastwest;dropTarget=0;fontSize=12;" parent="S_byT54Nm3cGkx0YTA23-78" vertex="1">
          <mxGeometry y="212" width="260" height="26" as="geometry" />
        </mxCell>
        <mxCell id="S_byT54Nm3cGkx0YTA23-92" value="" style="shape=partialRectangle;top=0;left=0;bottom=0;fillColor=none;align=left;verticalAlign=top;spacingLeft=4;spacingRight=4;overflow=hidden;rotatable=0;points=[];portConstraint=eastwest;part=1;fontSize=12;" parent="S_byT54Nm3cGkx0YTA23-91" vertex="1" connectable="0">
          <mxGeometry width="30" height="26" as="geometry" />
        </mxCell>
        <mxCell id="S_byT54Nm3cGkx0YTA23-93" value="nomor_paket : VARCHAR(128)" style="shape=partialRectangle;top=0;left=0;right=0;bottom=0;align=left;verticalAlign=top;fillColor=none;spacingLeft=34;spacingRight=4;overflow=hidden;rotatable=0;points=[[0,0.5],[1,0.5]];portConstraint=eastwest;dropTarget=0;fontSize=12;" parent="S_byT54Nm3cGkx0YTA23-78" vertex="1">
          <mxGeometry y="238" width="260" height="26" as="geometry" />
        </mxCell>
        <mxCell id="S_byT54Nm3cGkx0YTA23-94" value="" style="shape=partialRectangle;top=0;left=0;bottom=0;fillColor=none;align=left;verticalAlign=top;spacingLeft=4;spacingRight=4;overflow=hidden;rotatable=0;points=[];portConstraint=eastwest;part=1;fontSize=12;" parent="S_byT54Nm3cGkx0YTA23-93" vertex="1" connectable="0">
          <mxGeometry width="30" height="26" as="geometry" />
        </mxCell>
        <mxCell id="S_byT54Nm3cGkx0YTA23-97" value="file : MEDIUM BLOB(16000000)" style="shape=partialRectangle;top=0;left=0;right=0;bottom=0;align=left;verticalAlign=top;fillColor=none;spacingLeft=34;spacingRight=4;overflow=hidden;rotatable=0;points=[[0,0.5],[1,0.5]];portConstraint=eastwest;dropTarget=0;fontSize=12;" parent="S_byT54Nm3cGkx0YTA23-78" vertex="1">
          <mxGeometry y="264" width="260" height="26" as="geometry" />
        </mxCell>
        <mxCell id="S_byT54Nm3cGkx0YTA23-98" value="" style="shape=partialRectangle;top=0;left=0;bottom=0;fillColor=none;align=left;verticalAlign=top;spacingLeft=4;spacingRight=4;overflow=hidden;rotatable=0;points=[];portConstraint=eastwest;part=1;fontSize=12;" parent="S_byT54Nm3cGkx0YTA23-97" vertex="1" connectable="0">
          <mxGeometry width="30" height="26" as="geometry" />
        </mxCell>
        <mxCell id="S_byT54Nm3cGkx0YTA23-95" value="" style="shape=partialRectangle;top=0;left=0;right=0;bottom=0;align=left;verticalAlign=top;fillColor=none;spacingLeft=34;spacingRight=4;overflow=hidden;rotatable=0;points=[[0,0.5],[1,0.5]];portConstraint=eastwest;dropTarget=0;fontSize=12;" parent="S_byT54Nm3cGkx0YTA23-78" vertex="1">
          <mxGeometry y="290" width="260" height="4" as="geometry" />
        </mxCell>
        <mxCell id="S_byT54Nm3cGkx0YTA23-96" value="" style="shape=partialRectangle;top=0;left=0;bottom=0;fillColor=none;align=left;verticalAlign=top;spacingLeft=4;spacingRight=4;overflow=hidden;rotatable=0;points=[];portConstraint=eastwest;part=1;fontSize=12;" parent="S_byT54Nm3cGkx0YTA23-95" vertex="1" connectable="0">
          <mxGeometry width="30" height="4" as="geometry" />
        </mxCell>
        <mxCell id="S_byT54Nm3cGkx0YTA23-0" value="Pegawai" style="swimlane;fontStyle=0;childLayout=stackLayout;horizontal=1;startSize=26;fillColor=#e0e0e0;horizontalStack=0;resizeParent=1;resizeParentMax=0;resizeLast=0;collapsible=1;marginBottom=0;swimlaneFillColor=#ffffff;align=center;fontSize=14;" parent="WIyWlLk6GJQsqaUBKTNV-1" vertex="1">
          <mxGeometry x="770" y="120" width="220" height="170" as="geometry" />
        </mxCell>
        <mxCell id="S_byT54Nm3cGkx0YTA23-1" value="nip : INT(64)" style="shape=partialRectangle;top=0;left=0;right=0;bottom=1;align=left;verticalAlign=middle;fillColor=none;spacingLeft=34;spacingRight=4;overflow=hidden;rotatable=0;points=[[0,0.5],[1,0.5]];portConstraint=eastwest;dropTarget=0;fontStyle=5;fontSize=12;" parent="S_byT54Nm3cGkx0YTA23-0" vertex="1">
          <mxGeometry y="26" width="220" height="30" as="geometry" />
        </mxCell>
        <mxCell id="S_byT54Nm3cGkx0YTA23-2" value="PK" style="shape=partialRectangle;top=0;left=0;bottom=0;fillColor=none;align=left;verticalAlign=middle;spacingLeft=4;spacingRight=4;overflow=hidden;rotatable=0;points=[];portConstraint=eastwest;part=1;fontSize=12;" parent="S_byT54Nm3cGkx0YTA23-1" vertex="1" connectable="0">
          <mxGeometry width="30" height="30" as="geometry" />
        </mxCell>
        <mxCell id="S_byT54Nm3cGkx0YTA23-3" value="nama_lengkap : VARCHAR(128)" style="shape=partialRectangle;top=0;left=0;right=0;bottom=0;align=left;verticalAlign=top;fillColor=none;spacingLeft=34;spacingRight=4;overflow=hidden;rotatable=0;points=[[0,0.5],[1,0.5]];portConstraint=eastwest;dropTarget=0;fontSize=12;" parent="S_byT54Nm3cGkx0YTA23-0" vertex="1">
          <mxGeometry y="56" width="220" height="26" as="geometry" />
        </mxCell>
        <mxCell id="S_byT54Nm3cGkx0YTA23-4" value="" style="shape=partialRectangle;top=0;left=0;bottom=0;fillColor=none;align=left;verticalAlign=top;spacingLeft=4;spacingRight=4;overflow=hidden;rotatable=0;points=[];portConstraint=eastwest;part=1;fontSize=12;" parent="S_byT54Nm3cGkx0YTA23-3" vertex="1" connectable="0">
          <mxGeometry width="30" height="26" as="geometry" />
        </mxCell>
        <mxCell id="S_byT54Nm3cGkx0YTA23-5" value="tanggal_lahir : DATETIME(64)" style="shape=partialRectangle;top=0;left=0;right=0;bottom=0;align=left;verticalAlign=top;fillColor=none;spacingLeft=34;spacingRight=4;overflow=hidden;rotatable=0;points=[[0,0.5],[1,0.5]];portConstraint=eastwest;dropTarget=0;fontSize=12;" parent="S_byT54Nm3cGkx0YTA23-0" vertex="1">
          <mxGeometry y="82" width="220" height="26" as="geometry" />
        </mxCell>
        <mxCell id="S_byT54Nm3cGkx0YTA23-6" value="" style="shape=partialRectangle;top=0;left=0;bottom=0;fillColor=none;align=left;verticalAlign=top;spacingLeft=4;spacingRight=4;overflow=hidden;rotatable=0;points=[];portConstraint=eastwest;part=1;fontSize=12;" parent="S_byT54Nm3cGkx0YTA23-5" vertex="1" connectable="0">
          <mxGeometry width="30" height="26" as="geometry" />
        </mxCell>
        <mxCell id="S_byT54Nm3cGkx0YTA23-7" value="no_telepon : INT(64)" style="shape=partialRectangle;top=0;left=0;right=0;bottom=0;align=left;verticalAlign=top;fillColor=none;spacingLeft=34;spacingRight=4;overflow=hidden;rotatable=0;points=[[0,0.5],[1,0.5]];portConstraint=eastwest;dropTarget=0;fontSize=12;" parent="S_byT54Nm3cGkx0YTA23-0" vertex="1">
          <mxGeometry y="108" width="220" height="26" as="geometry" />
        </mxCell>
        <mxCell id="S_byT54Nm3cGkx0YTA23-8" value="" style="shape=partialRectangle;top=0;left=0;bottom=0;fillColor=none;align=left;verticalAlign=top;spacingLeft=4;spacingRight=4;overflow=hidden;rotatable=0;points=[];portConstraint=eastwest;part=1;fontSize=12;" parent="S_byT54Nm3cGkx0YTA23-7" vertex="1" connectable="0">
          <mxGeometry width="30" height="26" as="geometry" />
        </mxCell>
        <mxCell id="S_byT54Nm3cGkx0YTA23-16" value="jabatan : VARCHAR(128)" style="shape=partialRectangle;top=0;left=0;right=0;bottom=0;align=left;verticalAlign=top;fillColor=none;spacingLeft=34;spacingRight=4;overflow=hidden;rotatable=0;points=[[0,0.5],[1,0.5]];portConstraint=eastwest;dropTarget=0;fontSize=12;" parent="S_byT54Nm3cGkx0YTA23-0" vertex="1">
          <mxGeometry y="134" width="220" height="26" as="geometry" />
        </mxCell>
        <mxCell id="S_byT54Nm3cGkx0YTA23-17" value="" style="shape=partialRectangle;top=0;left=0;bottom=0;fillColor=none;align=left;verticalAlign=top;spacingLeft=4;spacingRight=4;overflow=hidden;rotatable=0;points=[];portConstraint=eastwest;part=1;fontSize=12;" parent="S_byT54Nm3cGkx0YTA23-16" vertex="1" connectable="0">
          <mxGeometry width="30" height="26" as="geometry" />
        </mxCell>
        <mxCell id="S_byT54Nm3cGkx0YTA23-9" value="" style="shape=partialRectangle;top=0;left=0;right=0;bottom=0;align=left;verticalAlign=top;fillColor=none;spacingLeft=34;spacingRight=4;overflow=hidden;rotatable=0;points=[[0,0.5],[1,0.5]];portConstraint=eastwest;dropTarget=0;fontSize=12;" parent="S_byT54Nm3cGkx0YTA23-0" vertex="1">
          <mxGeometry y="160" width="220" height="10" as="geometry" />
        </mxCell>
        <mxCell id="S_byT54Nm3cGkx0YTA23-10" value="" style="shape=partialRectangle;top=0;left=0;bottom=0;fillColor=none;align=left;verticalAlign=top;spacingLeft=4;spacingRight=4;overflow=hidden;rotatable=0;points=[];portConstraint=eastwest;part=1;fontSize=12;" parent="S_byT54Nm3cGkx0YTA23-9" vertex="1" connectable="0">
          <mxGeometry width="30" height="10" as="geometry" />
        </mxCell>
      </root>
    </mxGraphModel>
  </diagram>
</mxfile>
